[Header]
FileType HTR
DataType HTRS
FileVersion 1
NumSegments 64
NumFrames 3
DataFrameRate 24
EulerRotationOrder ZYX
CalibrationUnits mm
RotationUnits Degrees
GlobalAxisofGravity Y
BoneLengthAxis Y
ScaleFactor 1.0
[SegmentNames&Hierarchy]
Hips	GLOBAL
Spine	Hips
Spine1	Spine
Spine2	Spine1
Neck	Spine2
Head	Neck
LeftEye	Head
RightEye	Head
LeftShoulder	Spine2
LeftArm	LeftShoulder
LeftForeArm	LeftArm
LeftHand	LeftForeArm
LeftHandThumb1	LeftHand
LeftHandThumb2	LeftHandThumb1
LeftHandThumb3	LeftHandThumb2
LeftHandThumb4	LeftHandThumb3
LeftHandIndex1	LeftHand
LeftHandIndex2	LeftHandIndex1
LeftHandIndex3	LeftHandIndex2
LeftHandIndex4	LeftHandIndex3
LeftHandMiddle1	LeftHand
LeftHandMiddle2	LeftHandMiddle1
LeftHandMiddle3	LeftHandMiddle2
LeftHandMiddle4	LeftHandMiddle3
LeftHandRing1	LeftHand
LeftHandRing2	LeftHandRing1
LeftHandRing3	LeftHandRing2
LeftHandRing4	LeftHandRing3
LeftHandPinky1	LeftHand
LeftHandPinky2	LeftHandPinky1
LeftHandPinky3	LeftHandPinky2
LeftHandPinky4	LeftHandPinky3
RightShoulder	Spine2
RightArm	RightShoulder
RightForeArm	RightArm
RightHand	RightForeArm
RightHandPinky1	RightHand
RightHandPinky2	RightHandPinky1
RightHandPinky3	RightHandPinky2
RightHandPinky4	RightHandPinky3
RightHandRing1	RightHand
RightHandRing2	RightHandRing1
RightHandRing3	RightHandRing2
RightHandRing4	RightHandRing3
RightHandMiddle1	RightHand
RightHandMiddle2	RightHandMiddle1
RightHandMiddle3	RightHandMiddle2
RightHandMiddle4	RightHandMiddle3
RightHandIndex1	RightHand
RightHandIndex2	RightHandIndex1
RightHandIndex3	RightHandIndex2
RightHandIndex4	RightHandIndex3
RightHandThumb1	RightHand
RightHandThumb2	RightHandThumb1
RightHandThumb3	RightHandThumb2
RightHandThumb4	RightHandThumb3
LeftUpLeg	Hips
LeftLeg	LeftUpLeg
LeftFoot	LeftLeg
LeftToeBase	LeftFoot
RightUpLeg	Hips
RightLeg	RightUpLeg
RightFoot	RightLeg
RightToeBase	RightFoot
[BasePosition]
Hips	0	0	0	0	0	0	1
Spine	0	0	0	0	0	0	1
Spine1	0	0	0	0	0	0	1
Spine2	0	0	0	0	0	0	1
Neck	0	0	0	0	0	0	1
Head	0	0	0	0	0	0	1
LeftEye	0	0	0	0	0	0	1
RightEye	0	0	0	0	0	0	1
LeftShoulder	0	0	0	0	0	0	1
LeftArm	0	0	0	0	0	0	1
LeftForeArm	0	0	0	0	0	0	1
LeftHand	0	0	0	0	0	0	1
LeftHandThumb1	0	0	0	0	0	0	1
LeftHandThumb2	0	0	0	0	0	0	1
LeftHandThumb3	0	0	0	0	0	0	1
LeftHandThumb4	0	0	0	0	0	0	1
LeftHandIndex1	0	0	0	0	0	0	1
LeftHandIndex2	0	0	0	0	0	0	1
LeftHandIndex3	0	0	0	0	0	0	1
LeftHandIndex4	0	0	0	0	0	0	1
LeftHandMiddle1	0	0	0	0	0	0	1
LeftHandMiddle2	0	0	0	0	0	0	1
LeftHandMiddle3	0	0	0	0	0	0	1
LeftHandMiddle4	0	0	0	0	0	0	1
LeftHandRing1	0	0	0	0	0	0	1
LeftHandRing2	0	0	0	0	0	0	1
LeftHandRing3	0	0	0	0	0	0	1
LeftHandRing4	0	0	0	0	0	0	1
LeftHandPinky1	0	0	0	0	0	0	1
LeftHandPinky2	0	0	0	0	0	0	1
LeftHandPinky3	0	0	0	0	0	0	1
LeftHandPinky4	0	0	0	0	0	0	1
RightShoulder	0	0	0	0	0	0	1
RightArm	0	0	0	0	0	0	1
RightForeArm	0	0	0	0	0	0	1
RightHand	0	0	0	0	0	0	1
RightHandPinky1	0	0	0	0	0	0	1
RightHandPinky2	0	0	0	0	0	0	1
RightHandPinky3	0	0	0	0	0	0	1
RightHandPinky4	0	0	0	0	0	0	1
RightHandRing1	0	0	0	0	0	0	1
RightHandRing2	0	0	0	0	0	0	1
RightHandRing3	0	0	0	0	0	0	1
RightHandRing4	0	0	0	0	0	0	1
RightHandMiddle1	0	0	0	0	0	0	1
RightHandMiddle2	0	0	0	0	0	0	1
RightHandMiddle3	0	0	0	0	0	0	1
RightHandMiddle4	0	0	0	0	0	0	1
RightHandIndex1	0	0	0	0	0	0	1
RightHandIndex2	0	0	0	0	0	0	1
RightHandIndex3	0	0	0	0	0	0	1
RightHandIndex4	0	0	0	0	0	0	1
RightHandThumb1	0	0	0	0	0	0	1
RightHandThumb2	0	0	0	0	0	0	1
RightHandThumb3	0	0	0	0	0	0	1
RightHandThumb4	0	0	0	0	0	0	1
LeftUpLeg	0	0	0	0	0	0	1
LeftLeg	0	0	0	0	0	0	1
LeftFoot	0	0	0	0	0	0	1
LeftToeBase	0	0	0	0	0	0	1
RightUpLeg	0	0	0	0	0	0	1
RightLeg	0	0	0	0	0	0	1
RightFoot	0	0	0	0	0	0	1
RightToeBase	0	0	0	0	0	0	1
[Hips]
18	51.0027504	1020.82605	72.01580811	5.785347462	-52.83041763	-8.361522675	1.0
19	43.28356171	1021.281189	71.73075867	6.748959064	-55.98799133	-9.195777893	1.0
20	35.78238678	1020.949463	69.94675446	7.962658882	-59.12887955	-10.28864861	1.0
[Spine]
18	0	101.8159943	1.315000057	1.632891059	-1.771747589	2.301738977	1.0
19	0	101.8159943	1.315000057	1.637324572	-0.7406311631	2.321725368	1.0
20	0	101.8159943	1.315000057	1.59495604	0.0952617228	2.430373907	1.0
[Spine1]
18	0	100.8349991	-10.00800037	1.157256484	0.01797319204	5.91793108	1.0
19	0	100.8349991	-10.00800037	1.212225318	1.324612856	6.248501301	1.0
20	0	100.8349991	-10.00800037	1.218762755	2.321456432	6.383741856	1.0
[Spine2]
18	0	91	-13.73399925	0.9338032007	0.5408744812	5.82532692	1.0
19	0	91	-13.73399925	0.9576854706	1.864954114	6.135072231	1.0
20	0	91	-13.73399925	0.9549367428	2.870618343	6.253947258	1.0
[Neck]
18	0	166.7169952	-25.16200066	2.309556007	-7.039811611	-1.025940418	1.0
19	0	166.7169952	-25.16200066	2.930017948	-7.519714355	-1.574505925	1.0
20	0	166.7169952	-25.16200066	3.408928156	-7.760668755	-2.04449892	1.0
[Head]
18	0	96.17900085	16.84999847	-1.192117333	-19.98327637	1.465113163	1.0
19	0	96.17900085	16.84999847	0.03938543797	-21.10249901	0.6907625794	1.0
20	0	96.17900085	16.84999847	1.323488474	-21.23955154	-0.5898436308	1.0
[LeftEye]
18	30.6760006	64.09500122	92.83599854	0	0	0	1.0
19	30.6760006	64.09500122	92.83599854	0	0	0	1.0
20	30.6760006	64.09500122	92.83599854	0	0	0	1.0
[RightEye]
18	-30.6760006	64.09500122	92.83499908	0	0	0	1.0
19	-30.6760006	64.09500122	92.83499908	0	0	0	1.0
20	-30.6760006	64.09500122	92.83499908	0	0	0	1.0
[LeftShoulder]
18	45.70400238	109.4599991	-26.28000069	4.859763622	-13.97560024	-5.417009354	1.0
19	45.70400238	109.4599991	-26.28000069	4.894951344	-13.0982399	-6.069235325	1.0
20	45.70400238	109.4599991	-26.28000069	4.938689709	-12.23368359	-6.88325882	1.0
[LeftArm]
18	105.923996	-5.24600029	-22.32099915	-5.312407017	4.981360435	-80.80236816	1.0
19	105.923996	-5.24600029	-22.32099915	-4.908177853	4.421417713	-80.25466919	1.0
20	105.923996	-5.24600029	-22.32099915	-4.386798382	3.932890654	-80.15203857	1.0
[LeftForeArm]
18	278.414978	-0.0009999999311	0	-1.059569695e-05	-16.98686028	-0.0002012667537	1.0
19	278.414978	-0.0009999999311	0	-9.4414454e-06	-17.39475441	-0.000205253411	1.0
20	278.414978	-0.0009999999311	0	-7.156946822e-07	-17.25590324	-0.0002015198988	1.0
[LeftHand]
18	283.2879944	0	0	-28.70280838	-8.08935833	-1.141154885	1.0
19	283.2879944	0	0	-29.01823807	-7.764251709	-1.876635194	1.0
20	283.2879944	0	0	-29.39704704	-6.576575756	-3.771956921	1.0
[LeftHandThumb1]
18	24.6609993	-15.75	26.8239994	17.61834908	-5.286202431	9.670204163	1.0
19	24.6609993	-15.75	26.8239994	17.83633614	-5.087397575	9.610507011	1.0
20	24.6609993	-15.75	26.8239994	18.30557632	-4.56391573	9.562081337	1.0
[LeftHandThumb2]
18	32.29800034	-18.64699936	18.64699936	-1.255259395	33.38174057	-3.28088212	1.0
19	32.29800034	-18.64699936	18.64699936	-1.200545073	33.21502686	-3.166693211	1.0
20	32.29800034	-18.64699936	18.64699936	-1.074856043	32.73090363	-2.901958227	1.0
[LeftHandThumb3]
18	26.52600098	-15.31499958	15.31499958	2.08541584	9.310157776	-0.01672882587	1.0
19	26.52600098	-15.31499958	15.31499958	2.081087112	9.296507835	-0.01316659618	1.0
20	26.52600098	-15.31499958	15.31499958	2.077001095	9.283695221	-0.009825855494	1.0
[LeftHandThumb4]
18	19.54599953	-11.28499985	11.28499985	0	0	0	1.0
19	19.54599953	-11.28499985	11.28499985	0	0	0	1.0
20	19.54599953	-11.28499985	11.28499985	0	0	0	1.0
[LeftHandIndex1]
18	91.09299469	-5.170999527	22.60099792	-0.3867919147	4.705511093	-8.570505142	1.0
19	91.09299469	-5.170999527	22.60099792	-0.3560605347	4.698009014	-8.317867279	1.0
20	91.09299469	-5.170999527	22.60099792	-0.2857476175	4.628323078	-7.655754566	1.0
[LeftHandIndex2]
18	36.76399994	0	0	-0.6273677349	2.768841267	-20.55519295	1.0
19	36.76399994	0	0	-0.6284523606	2.770853758	-20.57758141	1.0
20	36.76399994	0	0	-0.6263380647	2.766943932	-20.53370667	1.0
[LeftHandIndex3]
18	28.83100128	0	0	-0.1094289869	0.803781569	-10.15276718	1.0
19	28.83100128	0	0	-0.1098150611	0.8059978485	-10.17513371	1.0
20	28.83100128	0	0	-0.1090469211	0.801651597	-10.13135529	1.0
[LeftHandIndex4]
18	23.92700005	0	0	0	0	0	1.0
19	23.92700005	0	0	0	0	0	1.0
20	23.92700005	0	0	0	0	0	1.0
[LeftHandMiddle1]
18	95.33399963	0	0	-1.601490855	8.754975319	-16.53876305	1.0
19	95.33399963	0	0	-1.577155113	8.765516281	-16.33581161	1.0
20	95.33399963	0	0	-1.510220289	8.704593658	-15.78279114	1.0
[LeftHandMiddle2]
18	36.98199844	0	0	-1.433248639	3.830281973	-33.51047516	1.0
19	36.98199844	0	0	-1.430618525	3.82743454	-33.47213364	1.0
20	36.98199844	0	0	-1.422262192	3.818392038	-33.35032272	1.0
[LeftHandMiddle3]
18	29.50900078	0	0	-0.15117836	1.494664669	-12.35794258	1.0
19	29.50900078	0	0	-0.1503053755	1.491041899	-12.32044125	1.0
20	29.50900078	0	0	-0.1475040466	1.479240656	-12.19854736	1.0
[LeftHandMiddle4]
18	28.3390007	0	0	0	0	0	1.0
19	28.3390007	0	0	0	0	0	1.0
20	28.3390007	0	0	0	0	0	1.0
[LeftHandRing1]
18	91.04499817	-0.4390000105	-18.65100098	-3.10252738	11.42102337	-27.61393356	1.0
19	91.04499817	-0.4390000105	-18.65100098	-3.08287859	11.47002125	-27.44524384	1.0
20	91.04499817	-0.4390000105	-18.65100098	-3.012836695	11.55142403	-26.8772068	1.0
[LeftHandRing2]
18	31.54000092	0	0	-1.193098545	4.049907684	-40.1296463	1.0
19	31.54000092	0	0	-1.19436121	4.051517487	-40.15035629	1.0
20	31.54000092	0	0	-1.193164229	4.050000668	-40.1307373	1.0
[LeftHandRing3]
18	29.37700081	0	0	-0.09043056518	1.895953894	-19.26107788	1.0
19	29.37700081	0	0	-0.09096013755	1.898130536	-19.28352928	1.0
20	29.37700081	0	0	-0.09058204293	1.896559238	-19.26745415	1.0
[LeftHandRing4]
18	26.47500038	0	0	0	0	0	1.0
19	26.47500038	0	0	0	0	0	1.0
20	26.47500038	0	0	0	0	0	1.0
[LeftHandPinky1]
18	80.77799988	-4.887000084	-38.06099701	-5.278674126	15.65756321	-37.57719421	1.0
19	80.77799988	-4.887000084	-38.06099701	-5.275477886	15.82656765	-37.46029663	1.0
20	80.77799988	-4.887000084	-38.06099701	-5.227799892	16.07104683	-36.97954941	1.0
[LeftHandPinky2]
18	36	0	0	-1.932128787	3.805696964	-45.48356247	1.0
19	36	0	0	-1.936785102	3.809801102	-45.545784	1.0
20	36	0	0	-1.940845609	3.813339472	-45.5997467	1.0
[LeftHandPinky3]
18	21.14200211	0	0	-0.5356725454	2.817560196	-20.34824562	1.0
19	21.14200211	0	0	-0.5383289456	2.823180676	-20.41028404	1.0
20	21.14200211	0	0	-0.5406330824	2.828035593	-20.46409225	1.0
[LeftHandPinky4]
18	19.75699997	0	0	0	0	0	1.0
19	19.75699997	0	0	0	0	0	1.0
20	19.75699997	0	0	0	0	0	1.0
[RightShoulder]
18	-45.70000076	109.4620056	-26.28000069	4.484095097	1.024490833	3.618173361	1.0
19	-45.70000076	109.4620056	-26.28000069	4.471642017	1.067508936	3.574626446	1.0
20	-45.70000076	109.4620056	-26.28000069	4.41941452	1.933594346	3.618070841	1.0
[RightArm]
18	-105.9280014	-5.248000145	-22.32099915	0.8619493842	-2.803939342	74.67527771	1.0
19	-105.9280014	-5.248000145	-22.32099915	2.337368488	-2.214594364	73.93345642	1.0
20	-105.9280014	-5.248000145	-22.32099915	2.763321638	-1.290492415	72.39463806	1.0
[RightForeArm]
18	-278.414978	0	0	5.211989901e-06	8.049326897	1.934725788e-06	1.0
19	-278.414978	0	0	-2.998073796e-06	7.463675022	-2.178748036e-05	1.0
20	-278.414978	0	0	2.440188837e-06	7.174807072	-6.285449672e-07	1.0
[RightHand]
18	-283.2879944	0	0.0009999999311	-5.786213398	-9.66059494	19.86408043	1.0
19	-283.2879944	0	0.0009999999311	-6.513269901	-10.12914753	19.26100922	1.0
20	-283.2879944	0	0.0009999999311	-7.934761047	-10.65603447	17.44843864	1.0
[RightHandPinky1]
18	-80.76699829	-4.885000229	-38.06000137	-4.85719347	-16.38321114	33.93822479	1.0
19	-80.76699829	-4.885000229	-38.06000137	-4.927203178	-16.43113136	34.40625763	1.0
20	-80.76699829	-4.885000229	-38.06000137	-4.991152287	-16.42549133	34.88378906	1.0
[RightHandPinky2]
18	-36	0	0.0009999999311	-1.964915156	-3.833802938	45.93817139	1.0
19	-36	0	0.0009999999311	-1.95978272	-3.829371214	45.8700943	1.0
20	-36	0	0.0009999999311	-1.955452323	-3.825608015	45.81261444	1.0
[RightHandPinky3]
18	-21.14200211	0	0	-0.7779564857	0.03034504689	22.39762688	1.0
19	-21.14200211	0	0	-0.7748492956	0.0364039056	22.32990837	1.0
20	-21.14200211	0	0	-0.7722299099	0.041484382	22.27272415	1.0
[RightHandPinky4]
18	-19.75699997	0	0	0	0	0	1.0
19	-19.75699997	0	0	0	0	0	1.0
20	-19.75699997	0	0	0	0	0	1.0
[RightHandRing1]
18	-91.03599548	-0.4390000105	-18.65100098	-2.598203659	-11.69508362	23.59557152	1.0
19	-91.03599548	-0.4390000105	-18.65100098	-2.665077209	-11.60503769	24.15584946	1.0
20	-91.03599548	-0.4390000105	-18.65100098	-2.731612921	-11.52483845	24.70709419	1.0
[RightHandRing2]
18	-31.54000092	0	0	-1.185627222	-4.040045261	40.0098381	1.0
19	-31.54000092	0	0	-1.185087919	-4.039337635	40.00078201	1.0
20	-31.54000092	0	0	-1.185008168	-4.039256096	39.9995842	1.0
[RightHandRing3]
18	-29.37700081	0	0	-0.1344621927	0.1080444679	17.63047218	1.0
19	-29.37700081	0	0	-0.134238109	0.1091453508	17.61940765	1.0
20	-29.37700081	0	0	-0.1341649294	0.1094089821	17.61632729	1.0
[RightHandRing4]
18	-26.47500038	0	0	0	0	0	1.0
19	-26.47500038	0	0	0	0	0	1.0
20	-26.47500038	0	0	0	0	0	1.0
[RightHandMiddle1]
18	-95.32500458	0	0	-1.07241118	-9.046562195	12.01884365	1.0
19	-95.32500458	0	0	-1.15115571	-9.036706924	12.70403671	1.0
20	-95.32500458	0	0	-1.224918365	-8.987157822	13.34349537	1.0
[RightHandMiddle2]
18	-36.98199844	0	0	-1.411338568	-3.806200266	33.19263077	1.0
19	-36.98199844	0	0	-1.411890388	-3.806789637	33.20056915	1.0
20	-36.98199844	0	0	-1.413654685	-3.808713198	33.22637177	1.0
[RightHandMiddle3]
18	-29.50900078	0	0	-0.2473398149	-1.6581074	15.6877861	1.0
19	-29.50900078	0	0	-0.2475303859	-1.658725381	15.69437981	1.0
20	-29.50900078	0	0	-0.2482135147	-1.660987854	15.71807289	1.0
[RightHandMiddle4]
18	-28.3390007	0	0.0009999999311	0	0	0	1.0
19	-28.3390007	0	0.0009999999311	0	0	0	1.0
20	-28.3390007	0	0.0009999999311	0	0	0	1.0
[RightHandIndex1]
18	-91.08300018	-5.167999744	22.60099792	0.3881604075	-4.215723038	1.840503335	1.0
19	-91.08300018	-5.167999744	22.60099792	0.3160633445	-4.361525536	2.812296867	1.0
20	-91.08300018	-5.167999744	22.60099792	0.2349292338	-4.489539623	3.778466225	1.0
[RightHandIndex2]
18	-36.76399994	0	0	-0.6363129616	-2.785149574	20.7407589	1.0
19	-36.76399994	0	0	-0.6344205737	-2.781662703	20.70163727	1.0
20	-36.76399994	0	0	-0.6327163577	-2.778529406	20.66667366	1.0
[RightHandIndex3]
18	-28.83100128	0	0	-0.2425588965	-0.1738027781	14.01195049	1.0
19	-28.83100128	0	0	-0.2416143268	-0.1699760854	13.97288513	1.0
20	-28.83100128	0	0	-0.2407632768	-0.1665811986	13.93802643	1.0
[RightHandIndex4]
18	-23.92700005	0	0	0	0	0	1.0
19	-23.92700005	0	0	0	0	0	1.0
20	-23.92700005	0	0	0	0	0	1.0
[RightHandThumb1]
18	-24.64799881	-15.72700024	26.82600021	19.78441429	-0.3255635202	-10.33104992	1.0
19	-24.64799881	-15.72700024	26.82600021	20.19127846	-0.09678270668	-10.04732513	1.0
20	-24.64799881	-15.72700024	26.82600021	20.01734352	0.3096227944	-10.01721764	1.0
[RightHandThumb2]
18	-32.29800034	-18.64699936	18.64699936	-0.3448885381	-29.89986801	3.033793688	1.0
19	-32.29800034	-18.64699936	18.64699936	-0.3427248299	-30.06753159	2.975538969	1.0
20	-32.29800034	-18.64699936	18.64699936	-0.3831681013	-30.61050606	3.052765369	1.0
[RightHandThumb3]
18	-26.52600098	-15.31399918	15.31399918	1.846308947	-7.516415596	0.4342998266	1.0
19	-26.52600098	-15.31399918	15.31399918	1.854102969	-7.608316898	0.865683496	1.0
20	-26.52600098	-15.31399918	15.31399918	1.858282685	-7.734476566	1.044160128	1.0
[RightHandThumb4]
18	-19.54599953	-11.28499985	11.28499985	0	0	0	1.0
19	-19.54599953	-11.28499985	11.28499985	0	0	0	1.0
20	-19.54599953	-11.28499985	11.28499985	0	0	0	1.0
[LeftUpLeg]
18	82.07800293	-67.51699829	-15.99599934	-0.891795516	39.63917923	13.57184219	1.0
19	82.07800293	-67.51699829	-15.99599934	-1.583135247	39.4798584	14.88735962	1.0
20	82.07800293	-67.51699829	-15.99599934	-6.252101898	37.47125626	13.51771069	1.0
[LeftLeg]
18	0	-443.7049866	2.845999956	22.53593636	9.8403759	2.970577955	1.0
19	0	-443.7049866	2.845999956	25.07793045	10.57111454	1.691835165	1.0
20	0	-443.7049866	2.845999956	29.64115524	9.857453346	3.566066265	1.0
[LeftFoot]
18	0	-444.2789917	-29.8219986	-15.07627964	27.28688812	-15.15556812	1.0
19	0	-444.2789917	-29.8219986	-13.59316826	26.60251999	-14.80663586	1.0
20	0	-444.2789917	-29.8219986	-10.61696339	24.80134583	-15.16412926	1.0
[LeftToeBase]
18	0	-87.28699493	107.1060028	-4.202507019	-3.025902515e-06	-3.569973842e-06	1.0
19	0	-87.28699493	107.1060028	-6.659322739	-4.319964773e-06	3.968094404e-07	1.0
20	0	-87.28699493	107.1060028	-9.128596306	-4.055065801e-06	4.688823537e-06	1.0
[RightUpLeg]
18	-82.07800293	-67.51699829	-15.99599934	-5.837120533	-29.67573547	5.710983753	1.0
19	-82.07800293	-67.51699829	-15.99599934	-4.327722549	-29.38334656	4.927981377	1.0
20	-82.07800293	-67.51699829	-15.99599934	-3.668147564	-26.81746864	4.747510433	1.0
[RightLeg]
18	0	-443.7049866	2.861999989	15.67089462	-0.009677817114	3.811489105	1.0
19	0	-443.7049866	2.861999989	14.10429096	0.281175375	5.527384281	1.0
20	0	-443.7049866	2.861999989	13.52156067	1.850708246	7.14105463	1.0
[RightFoot]
18	0	-444.2770081	-29.83799934	-9.544983864	-13.54428577	-2.964483976	1.0
19	0	-444.2770081	-29.83799934	-9.042185783	-13.1690836	-3.73266077	1.0
20	0	-444.2770081	-29.83799934	-8.795408249	-14.72467899	-4.730776787	1.0
[RightToeBase]
18	0	-87.28699493	107.1060028	-0.5940695405	-2.784217713e-06	3.081915736e-07	1.0
19	0	-87.28699493	107.1060028	-0.435662955	1.674373266e-06	5.751925869e-07	1.0
20	0	-87.28699493	107.1060028	-0.5937876701	1.913838423e-05	-2.221896693e-06	1.0
[EndOfFile]
